<svg xmlns="http://www.w3.org/2000/svg" viewBox="0 0 443.11 294.36"><defs><style>.cls-1{fill:#989798;}.cls-2{fill:#6a6a6a;}.cls-3{fill:#acabab;}</style></defs><g id="Layer_2" data-name="Layer 2"><g id="Layer_1-2" data-name="Layer 1"><polygon class="cls-1" points="376.11 0 375.8 0.18 376.11 0.18 376.11 0"/><polygon class="cls-2" points="0 186.11 0.28 286.71 0.39 286.64 0.39 186.33 0 186.11"/><polygon class="cls-3" points="0 186.11 0.39 186.33 0.39 185.88 0 186.11"/><polygon class="cls-1" points="255.19 0.18 242.04 0.18 214.97 15.81 215.38 162.54 221.92 158.76 221.53 19.61 255.19 0.18"/><polygon class="cls-2" points="188.18 0.24 188.6 146.97 215.38 162.54 214.97 15.81 188.18 0.24"/><polygon class="cls-3" points="214.97 15.81 242.04 0.18 188.3 0.18 188.18 0.24 214.97 15.81"/><polygon class="cls-1" points="248.62 143.35 248.73 181.91 255.27 178.13 255.16 139.57 248.62 143.35"/><polygon class="cls-1" points="248.62 143.35 255.16 139.57 254.87 38.97 322.06 0.18 308.93 0.18 248.31 35.18 248.62 143.35"/><polygon class="cls-2" points="221.92 158.76 221.94 166.34 248.73 181.91 248.62 143.35 221.92 158.76"/><polygon class="cls-2" points="248.31 35.18 221.53 19.61 221.92 158.76 248.62 143.35 248.31 35.18"/><polygon class="cls-3" points="248.31 35.18 308.93 0.18 255.19 0.18 221.53 19.61 248.31 35.18"/><polygon class="cls-1" points="281.96 162.72 282.07 201.26 288.61 197.49 288.5 158.94 281.96 162.72"/><polygon class="cls-1" points="388.95 0.18 376.11 0.18 376.13 7.58 388.95 0.18"/><polygon class="cls-1" points="281.85 124.16 281.96 162.72 288.5 158.94 288.39 120.38 281.85 124.16"/><polygon class="cls-1" points="342.9 26.77 376.13 7.58 376.11 0.18 375.8 0.18 342.88 19.19 342.9 26.77"/><polygon class="cls-1" points="288.22 58.34 342.9 26.77 342.88 19.19 281.66 54.53 281.85 124.16 288.39 120.38 288.22 58.34"/><polygon class="cls-2" points="255.27 178.13 255.29 185.7 282.07 201.26 281.96 162.72 255.27 178.13"/><polygon class="cls-2" points="281.85 124.16 255.16 139.57 255.27 178.13 281.96 162.72 281.85 124.16"/><polygon class="cls-2" points="254.87 38.97 255.16 139.57 281.85 124.16 281.66 54.53 254.87 38.97"/><polygon class="cls-3" points="375.8 0.18 342.82 0.18 342.88 19.19 375.8 0.18"/><polygon class="cls-3" points="254.87 38.97 281.66 54.53 342.88 19.19 342.82 0.18 322.06 0.18 254.87 38.97"/><polygon class="cls-1" points="409.76 127.54 315.31 182.08 315.42 220.63 443.11 146.91 442.69 0.18 409.46 19.37 409.76 127.54"/><polygon class="cls-1" points="376.42 108.18 315.2 143.53 315.31 182.08 409.76 127.54 409.46 19.37 376.22 38.56 376.42 108.18"/><polygon class="cls-1" points="376.22 38.56 342.99 57.74 343.07 88.81 315.09 104.97 315.2 143.53 376.42 108.18 376.22 38.56"/><polygon class="cls-1" points="315.09 104.97 343.07 88.81 342.99 57.74 315 73.9 315.09 104.97"/><polygon class="cls-2" points="288.61 197.49 288.63 205.07 315.42 220.63 315.31 182.08 288.61 197.49"/><polygon class="cls-2" points="315.2 143.53 288.5 158.94 288.61 197.49 315.31 182.08 315.2 143.53"/><polygon class="cls-2" points="288.39 120.38 288.5 158.94 315.2 143.53 315.09 104.97 288.39 120.38"/><polygon class="cls-2" points="288.22 58.34 288.39 120.38 315.09 104.97 315 73.9 288.22 58.34"/><polygon class="cls-3" points="409.46 19.37 442.69 0.18 409.4 0.18 409.46 19.37"/><polygon class="cls-3" points="376.22 38.56 409.46 19.37 409.4 0.18 388.95 0.18 376.13 7.58 376.22 38.56"/><polygon class="cls-3" points="376.22 38.56 376.13 7.58 342.9 26.77 342.99 57.74 376.22 38.56"/><polygon class="cls-3" points="315 73.9 342.99 57.74 342.9 26.77 288.22 58.34 315 73.9"/><polygon class="cls-1" points="0.39 147.27 87.81 96.8 87.78 89.22 0.39 139.68 0.39 147.27"/><polygon class="cls-3" points="87.78 89.22 61 73.66 0.39 108.65 0.39 139.68 87.78 89.22"/><polygon class="cls-1" points="87.92 135.35 121.15 116.16 121.13 108.59 87.89 127.78 87.92 135.35"/><polygon class="cls-1" points="87.92 135.35 87.89 127.78 0.39 178.29 0.39 185.88 87.92 135.35"/><polygon class="cls-3" points="121.13 108.59 94.35 93.02 87.81 96.8 87.89 127.78 121.13 108.59"/><polygon class="cls-3" points="0.39 178.29 87.89 127.78 87.81 96.8 0.39 147.27 0.39 178.29"/><polygon class="cls-1" points="121.26 154.72 154.5 135.53 154.47 127.95 121.24 147.13 121.26 154.72"/><polygon class="cls-1" points="33.52 267.52 26.98 271.3 27.05 294.36 33.6 294.36 33.52 267.52"/><polygon class="cls-1" points="121.26 154.72 121.24 147.13 88 166.32 88.03 173.9 121.26 154.72"/><polygon class="cls-1" points="26.98 271.3 33.52 267.52 33.34 205.47 88.03 173.9 88 166.32 26.78 201.67 26.98 271.3"/><polygon class="cls-2" points="0.39 286.64 0.39 294.36 27.05 294.36 26.98 271.3 0.39 286.64"/><polygon class="cls-2" points="26.78 201.67 0.39 186.33 0.39 286.64 26.98 271.3 26.78 201.67"/><polygon class="cls-3" points="154.47 127.95 127.69 112.38 121.15 116.16 121.24 147.13 154.47 127.95"/><polygon class="cls-3" points="88 166.32 121.24 147.13 121.15 116.16 87.92 135.35 88 166.32"/><polygon class="cls-3" points="0.39 186.33 26.78 201.67 88 166.32 87.92 135.35 0.39 185.88 0.39 186.33"/><polygon class="cls-1" points="187.82 147.31 154.59 166.5 154.89 274.68 120.8 294.36 187.69 294.36 188.24 294.04 187.82 147.31"/><polygon class="cls-1" points="121.55 255.32 60.33 290.66 60.34 294.36 120.8 294.36 154.89 274.68 154.59 166.5 121.35 185.69 121.55 255.32"/><polygon class="cls-1" points="88.2 235.95 60.22 252.11 60.33 290.66 121.55 255.32 121.35 185.69 88.11 204.88 88.2 235.95"/><polygon class="cls-1" points="88.11 204.88 60.13 221.04 60.22 252.11 88.2 235.95 88.11 204.88"/><polygon class="cls-2" points="53.93 294.36 60.34 294.36 60.33 290.66 53.93 294.36"/><polygon class="cls-2" points="60.22 252.11 33.52 267.52 33.6 294.36 53.93 294.36 60.33 290.66 60.22 252.11"/><polygon class="cls-2" points="33.34 205.47 33.52 267.52 60.22 252.11 60.13 221.04 33.34 205.47"/><polygon class="cls-3" points="187.82 147.31 161.04 131.75 154.5 135.53 154.59 166.5 187.82 147.31"/><polygon class="cls-3" points="121.35 185.69 154.59 166.5 154.5 135.53 121.26 154.72 121.35 185.69"/><polygon class="cls-3" points="88.11 204.88 121.35 185.69 121.26 154.72 88.03 173.9 88.11 204.88"/><polygon class="cls-3" points="88.11 204.88 88.03 173.9 33.34 205.47 60.13 221.04 88.11 204.88"/><polygon class="cls-1" points="0.39 30.82 0.39 31.15 0.4 31.15 0.39 30.82"/><polygon class="cls-1" points="27.09 15.74 27.2 54.29 33.74 50.51 33.63 11.96 27.09 15.74"/><polygon class="cls-1" points="27.05 0.18 27.09 15.74 33.63 11.96 33.6 0.18 27.05 0.18"/><polygon class="cls-2" points="0.4 31.15 0.42 38.72 27.2 54.29 27.09 15.74 0.4 31.15"/><polygon class="cls-2" points="27.05 0.18 0.39 0.18 0.39 30.82 0.4 31.15 27.09 15.74 27.05 0.18"/><polygon class="cls-1" points="60.43 35.1 60.54 73.66 187.81 0.18 120.92 0.18 60.43 35.1"/><polygon class="cls-1" points="60.43 35.1 120.92 0.18 60.34 0.18 60.43 35.1"/><polygon class="cls-2" points="33.74 50.51 33.76 58.09 60.54 73.66 60.43 35.1 33.74 50.51"/><polygon class="cls-2" points="60.34 0.18 54.04 0.18 33.63 11.96 33.74 50.51 60.43 35.1 60.34 0.18"/><polygon class="cls-2" points="33.63 11.96 54.04 0.18 33.6 0.18 33.63 11.96"/><polygon class="cls-1" points="254.84 294.36 342.45 243.78 342.43 236.2 241.69 294.36 254.84 294.36"/><polygon class="cls-3" points="342.43 236.2 315.65 220.63 187.95 294.36 241.69 294.36 342.43 236.2"/><polygon class="cls-1" points="342.56 282.32 375.8 263.14 375.77 255.56 342.54 274.75 342.56 282.32"/><polygon class="cls-1" points="342.56 282.32 342.54 274.75 308.58 294.36 321.72 294.36 342.56 282.32"/><polygon class="cls-3" points="375.77 255.56 348.99 240 342.45 243.78 342.54 274.75 375.77 255.56"/><polygon class="cls-3" points="308.58 294.36 342.54 274.75 342.45 243.78 254.84 294.36 308.58 294.36"/><polygon class="cls-1" points="375.88 294.36 388.61 294.36 409.14 282.5 409.12 274.92 375.88 294.11 375.88 294.36"/><polygon class="cls-1" points="375.88 294.11 375.46 294.36 375.88 294.36 375.88 294.11"/><polygon class="cls-3" points="409.12 274.92 382.34 259.36 375.8 263.14 375.88 294.11 409.12 274.92"/><polygon class="cls-3" points="342.59 294.36 375.46 294.36 375.88 294.11 375.8 263.14 342.56 282.32 342.59 294.36"/><polygon class="cls-3" points="342.59 294.36 342.56 282.32 321.72 294.36 342.59 294.36"/><polygon class="cls-1" points="442.35 294.36 442.46 294.36 442.46 294.29 442.35 294.36"/><polygon class="cls-3" points="442.35 294.36 442.46 294.29 415.68 278.73 409.14 282.5 409.17 294.36 442.35 294.36"/><polygon class="cls-3" points="409.17 294.36 409.14 282.5 388.61 294.36 409.17 294.36"/></g></g></svg>