<svg xmlns="http://www.w3.org/2000/svg" width="443.459" height="294.856" viewBox="0 0 443.459 294.856"><g transform="translate(2805 -68)"><path d="M471.613,502.415l-.311.179h.311Z" transform="translate(-2900.5 -434.415)" fill="#868585"/><path d="M95.5,688.521l.285,100.6.108-.063V688.749Z" transform="translate(-2900.5 -434.415)" fill="#575757"/><path d="M95.5,688.521l.394.229v-.456Z" transform="translate(-2900.5 -434.415)" fill="#9c9b9b"/><path d="M350.687,502.594H337.536l-27.07,15.629.416,146.729,6.541-3.777-.394-139.149Z" transform="translate(-2900.5 -434.415)" fill="#454545"/><path d="M283.684,502.659l.416,146.729,26.782,15.564-.416-146.729Z" transform="translate(-2900.5 -434.415)" fill="#5a5a5a"/><path d="M310.466,518.223l27.07-15.629H283.8l-.112.065Z" transform="translate(-2900.5 -434.415)" fill="#9c9b9b"/><path d="M350.374,541.386l67.189-38.792H404.427l-60.616,35,.307,108.173.109,38.557,6.541-3.777-.109-38.557Z" transform="translate(-2900.5 -434.415)" fill="#454545"/><path d="M344.118,645.764l-.307-108.173-26.782-15.564.394,139.149.021,7.58,26.782,15.564Z" transform="translate(-2900.5 -434.415)" fill="#5a5a5a"/><path d="M343.811,537.591l60.616-35h-53.74l-33.658,19.432Z" transform="translate(-2900.5 -434.415)" fill="#9c9b9b"/><path d="M471.614,502.594H471.3L438.378,521.6,377.156,556.95l.2,69.625.109,38.557.109,38.548,6.541-3.777L384,661.355l-.109-38.557-.176-62.044,54.68-31.57L471.635,510l12.819-7.4Z" transform="translate(-2900.5 -434.415)" fill="#454545"/><path d="M377.463,665.131l-.109-38.557-.2-69.625-26.782-15.564.285,100.6.109,38.557.021,7.572,26.782,15.564Z" transform="translate(-2900.5 -434.415)" fill="#5a5a5a"/><path d="M438.324,502.594H417.563l-67.189,38.792,26.782,15.564L438.378,521.6,471.3,502.594Z" transform="translate(-2900.5 -434.415)" fill="#9c9b9b"/><path d="M538.194,502.594l-33.236,19.189-33.236,19.189L438.487,560.16,410.5,576.318l.088,31.068.109,38.557.109,38.548.109,38.557L538.61,649.323Z" transform="translate(-2900.5 -434.415)" fill="#242424"/><path d="M410.808,684.49l-.109-38.548-.109-38.557-.088-31.068-26.782-15.564.176,62.044L384,661.355l.109,38.548.021,7.581,26.782,15.564Z" transform="translate(-2900.5 -434.415)" fill="#5a5a5a"/><path d="M504.9,502.594h-20.45L471.635,510,438.4,529.184l-54.68,31.57L410.5,576.318l27.986-16.158,33.236-19.189,33.236-19.189,33.236-19.189Z" transform="translate(-2900.5 -434.415)" fill="#9c9b9b"/><path d="M95.894,649.683l87.413-50.468-.021-7.58L95.894,642.09Z" transform="translate(-2900.5 -434.415)" fill="#454545"/><path d="M183.285,591.634,156.5,576.07l-60.61,34.993V642.09Z" transform="translate(-2900.5 -434.415)" fill="#9c9b9b"/><path d="M216.63,611l-33.236,19.189-87.5,50.519v7.584l87.523-50.531,33.236-19.189Z" transform="translate(-2900.5 -434.415)" fill="#454545"/><path d="M189.848,595.438l-6.541,3.777L95.894,649.683v31.027l87.5-50.519L216.63,611Z" transform="translate(-2900.5 -434.415)" fill="#9c9b9b"/><path d="M249.975,630.361,216.74,649.55,183.5,668.738l-61.222,35.346.2,69.625.065,23.061H129.1l-.076-26.838-.176-62.044,54.681-31.57,33.236-19.189L250,637.942Z" transform="translate(-2900.5 -434.415)" fill="#454545"/><path d="M122.48,773.71l-.2-69.625L95.894,688.749V796.771h26.651Z" transform="translate(-2900.5 -434.415)" fill="#5a5a5a"/><path d="M223.193,614.8l-6.541,3.777-33.236,19.189L95.894,688.293v.456l26.389,15.335L183.5,668.738,216.74,649.55l33.236-19.189Z" transform="translate(-2900.5 -434.415)" fill="#9c9b9b"/><path d="M283.32,649.729l-33.236,19.189-33.236,19.189-33.236,19.189-27.986,16.158.088,31.068.109,38.557.01,3.693H283.2l.541-.313Z" transform="translate(-2900.5 -434.415)" fill="#242424"/><path d="M20.583,88.882H.252L.176,62.044,0,0,26.782,15.564l.088,31.069.109,38.556.011,3.694Z" transform="translate(-2771.655 273.474)" fill="#5a5a5a" stroke="rgba(0,0,0,0)" stroke-miterlimit="10" stroke-width="1"/><path d="M256.538,634.165,250,637.942,216.761,657.13l-33.236,19.189-54.681,31.57,26.782,15.564,27.986-16.158,33.236-19.189,33.236-19.189,33.236-19.189Z" transform="translate(-2900.5 -434.415)" fill="#9c9b9b"/><path d="M95.894,533.237v.329h0Z" transform="translate(-2900.5 -434.415)" fill="#868585"/><path d="M129.13,514.378l-.033-11.783h-6.552l.044,15.56L122.7,556.7l6.541-3.777Z" transform="translate(-2900.5 -434.415)" fill="#454545"/><path d="M122.589,518.154l-.044-15.56H95.894v30.972l.021,7.572L122.7,556.7Z" transform="translate(-2900.5 -434.415)" fill="#5a5a5a"/><path d="M216.415,502.594H155.835l.1,34.919.109,38.557,127.264-73.476Z" transform="translate(-2900.5 -434.415)" fill="#242424"/><path d="M155.934,537.513l-.1-34.919H129.1l.033,11.783.109,38.548.021,7.581,26.782,15.564Z" transform="translate(-2900.5 -434.415)" fill="#5a5a5a"/><path d="M350.345,796.771l87.606-50.579-.021-7.58-100.735,58.16Z" transform="translate(-2900.5 -434.415)" fill="#454545"/><path d="M437.929,738.611l-26.782-15.564L283.454,796.771h53.74Z" transform="translate(-2900.5 -434.415)" fill="#9c9b9b"/><path d="M471.274,757.979l-33.236,19.189-33.953,19.6h13.136l20.839-12.031L471.3,765.551Z" transform="translate(-2900.5 -434.415)" fill="#454545"/><path d="M444.492,742.415l-6.541,3.777-87.606,50.579h53.74l33.953-19.6,33.236-19.189Z" transform="translate(-2900.5 -434.415)" fill="#9c9b9b"/><path d="M471.384,796.771h12.728l20.529-11.852-.021-7.581-33.236,19.189Z" transform="translate(-2900.5 -434.415)" fill="#454545"/><path d="M471.383,796.527l-.422.244h.423Z" transform="translate(-2900.5 -434.415)" fill="#868585"/><path d="M477.837,761.774l-6.541,3.777L438.06,784.739l-20.839,12.031h53.74l.422-.244,33.236-19.189Z" transform="translate(-2900.5 -434.415)" fill="#9c9b9b"/><path d="M537.852,796.771h.112v-.065Z" transform="translate(-2900.5 -434.415)" fill="#868585"/><path d="M20.562,15.628,20.528,3.776,27.069,0,53.852,15.564l-.112.065ZM0,15.628,20.528,3.776l.034,11.852Z" transform="translate(-2416.388 346.727)" fill="#9c9b9b" stroke="rgba(0,0,0,0)" stroke-miterlimit="10" stroke-width="1"/></g></svg>