<?xml version="1.0" encoding="utf-8"?>
<!-- Generator: Adobe Illustrator 25.2.1, SVG Export Plug-In . SVG Version: 6.00 Build 0)  -->
<svg version="1.1" id="Layer_1" xmlns="http://www.w3.org/2000/svg" xmlns:xlink="http://www.w3.org/1999/xlink" x="0px" y="0px"
	 viewBox="0 0 595.3 841.9" style="enable-background:new 0 0 595.3 841.9;" xml:space="preserve">
<style type="text/css">
	.st0{fill:#989798;}
	.st1{fill:#6A6A6A;}
	.st2{fill:#ACABAB;}
	.st3{fill:none;}
</style>
<g>
	<polygon class="st0" points="554.3,289.4 553.8,142.7 553.8,289.6 	"/>
	<polygon class="st1" points="111.9,328.2 112.2,428.8 112.3,428.8 112.3,328.4 	"/>
	<polygon class="st2" points="111.9,328.2 112.3,328.4 112.3,328 	"/>
	<polygon class="st3" points="553.8,142.7 553.8,142.7 553.8,142.7 	"/>
	<polygon class="st3" points="453.8,378.7 453.8,386.3 460.4,382.5 487.2,398.1 487.2,405.6 493.7,401.8 520.5,417.4 520.5,425 
		527.1,421.2 553.8,436.8 553.8,436.8 553.8,436.8 553.8,289.6 426.6,363.1 399.8,347.6 399.8,340 393.2,343.8 366.4,328.2 
		366.4,320.6 359.9,324.4 333.1,308.8 333.1,301.2 326.5,305 299.8,289.5 299.3,142.7 299,142.7 172.5,215.8 145.7,200.2 
		145.7,192.6 139.1,196.4 112.3,180.9 112.3,173.3 112.3,173.3 112.3,250.8 172.9,215.8 199.7,231.4 199.7,238.9 206.3,235.2 
		233.1,250.7 233.1,258.3 239.6,254.5 266.4,270.1 266.4,277.7 273,273.9 299.7,289.4 300.2,436.2 299,436.8 299.3,436.8 427,363.1 
			"/>
	<polygon class="st0" points="366.2,142.7 353.1,142.7 326.1,158.3 326.5,305 333.1,301.2 332.7,162.1 	"/>
	<polygon class="st1" points="326.5,305 326.1,158.3 299.3,142.7 299.8,289.5 	"/>
	<polygon class="st2" points="353.1,142.7 299.3,142.7 326.1,158.3 	"/>
	<polygon class="st0" points="359.8,285.8 359.9,324.4 366.4,320.6 366.3,282.1 	"/>
	<polygon class="st0" points="359.8,285.8 366.3,282.1 366,181.5 433.1,142.7 420,142.7 359.5,177.7 	"/>
	<polygon class="st1" points="333.1,301.2 333.1,308.8 359.9,324.4 359.8,285.8 	"/>
	<polygon class="st1" points="359.5,177.7 332.7,162.1 333.1,301.2 359.8,285.8 	"/>
	<polygon class="st2" points="359.5,177.7 420,142.7 366.2,142.7 332.7,162.1 	"/>
	<polygon class="st0" points="500,142.7 487.3,142.7 487.3,150.1 	"/>
	<polygon class="st0" points="393.1,305.2 393.2,343.8 399.8,340 399.7,301.4 	"/>
	<polygon class="st0" points="454.1,169.3 487.3,150.1 487.3,142.7 486.8,142.7 454,161.7 	"/>
	<polygon class="st0" points="393,266.6 393.1,305.2 399.7,301.4 399.5,262.9 	"/>
	<polygon class="st0" points="399.4,200.8 454.1,169.3 454,161.7 392.8,197 393,266.6 399.5,262.9 	"/>
	<polygon class="st1" points="366.4,320.6 366.4,328.2 393.2,343.8 393.1,305.2 	"/>
	<polygon class="st1" points="393,266.6 366.3,282.1 366.4,320.6 393.1,305.2 	"/>
	<polygon class="st1" points="366,181.5 366.3,282.1 393,266.6 392.8,197 	"/>
	<polygon class="st2" points="486.8,142.7 454,142.7 454,161.7 	"/>
	<polygon class="st2" points="366,181.5 392.8,197 454,161.7 454,142.7 433.1,142.7 	"/>
	<polygon class="st0" points="520.6,161.9 520.9,270 426.5,324.6 426.6,363.1 553.8,289.6 553.8,142.7 553.8,142.7 553.7,142.7 	"/>
	<polygon class="st0" points="487.6,250.7 426.4,286 426.5,324.6 520.9,270 520.6,161.9 487.4,181 	"/>
	<polygon class="st0" points="487.4,181 454.1,200.2 454.2,231.3 426.2,247.5 426.4,286 487.6,250.7 	"/>
	<polygon class="st0" points="426.2,247.5 454.2,231.3 454.1,200.2 426.2,216.4 	"/>
	<polygon class="st1" points="399.8,340 399.8,347.6 426.6,363.1 426.5,324.6 	"/>
	<polygon class="st1" points="426.4,286 399.7,301.4 399.8,340 426.5,324.6 	"/>
	<polygon class="st1" points="399.5,262.9 399.7,301.4 426.4,286 426.2,247.5 	"/>
	<polygon class="st1" points="399.4,200.8 399.5,262.9 426.2,247.5 426.2,216.4 	"/>
	<polygon class="st2" points="553.7,142.7 520.6,142.7 520.6,161.9 	"/>
	<polygon class="st2" points="487.4,181 520.6,161.9 520.6,142.7 500,142.7 487.3,150.1 	"/>
	<polygon class="st2" points="487.4,181 487.3,150.1 454.1,169.3 454.1,200.2 	"/>
	<polygon class="st2" points="426.2,216.4 454.1,200.2 454.1,169.3 399.4,200.8 	"/>
	<polygon class="st0" points="453.8,378.7 353.1,436.8 366.2,436.8 453.8,386.3 	"/>
	<polygon class="st2" points="453.8,378.7 427,363.1 299.3,436.8 353.1,436.8 	"/>
	<polygon class="st0" points="453.9,424.8 487.2,405.6 487.2,398.1 453.9,417.2 	"/>
	<polygon class="st0" points="453.9,417.2 420,436.8 433.1,436.8 453.9,424.8 	"/>
	<polygon class="st2" points="487.2,398.1 460.4,382.5 453.8,386.3 453.9,417.2 	"/>
	<polygon class="st2" points="453.9,417.2 453.8,386.3 366.2,436.8 420,436.8 	"/>
	<polygon class="st0" points="487.3,436.8 500,436.8 520.5,425 520.5,417.4 487.3,436.6 	"/>
	<polygon class="st0" points="487.3,436.6 486.8,436.8 487.3,436.8 	"/>
	<polygon class="st2" points="520.5,417.4 493.7,401.8 487.2,405.6 487.3,436.6 	"/>
	<polygon class="st2" points="454,436.8 486.8,436.8 487.3,436.6 487.2,405.6 453.9,424.8 	"/>
	<polygon class="st2" points="453.9,424.8 433.1,436.8 454,436.8 	"/>
	<polygon class="st0" points="553.7,436.8 553.8,436.8 553.8,436.8 	"/>
	<polygon class="st2" points="527.1,421.2 520.5,425 520.6,436.8 553.7,436.8 553.8,436.8 	"/>
	<polygon class="st2" points="520.6,436.8 520.5,425 500,436.8 	"/>
	<polygon class="st0" points="112.3,148.5 112.3,173.3 112.3,173.3 	"/>
	<polygon class="st0" points="139,157.9 139.1,196.4 145.7,192.6 145.6,154.1 	"/>
	<polygon class="st0" points="139,142.7 139,157.9 145.6,154.1 145.5,142.7 	"/>
	<polygon class="st1" points="112.3,173.3 112.3,180.9 139.1,196.4 139,157.9 	"/>
	<polygon class="st1" points="139,142.7 112.3,142.7 112.3,148.5 112.3,173.3 139,157.9 	"/>
	<polygon class="st0" points="172.4,177.2 172.5,215.8 299,142.7 232.1,142.7 	"/>
	<polygon class="st0" points="172.4,177.2 232.1,142.7 172.3,142.7 	"/>
	<polygon class="st1" points="145.7,192.6 145.7,200.2 172.5,215.8 172.4,177.2 	"/>
	<polygon class="st1" points="172.3,142.7 165.2,142.7 145.6,154.1 145.7,192.6 172.4,177.2 	"/>
	<polygon class="st1" points="145.6,154.1 165.2,142.7 145.5,142.7 	"/>
	<polygon class="st0" points="112.3,289.4 199.7,238.9 199.7,231.4 112.3,281.8 	"/>
	<polygon class="st2" points="199.7,231.4 172.9,215.8 112.3,250.8 112.3,281.8 	"/>
	<polygon class="st0" points="199.8,277.5 233.1,258.3 233.1,250.7 199.8,269.9 	"/>
	<polygon class="st0" points="199.8,277.5 199.8,269.9 112.3,320.5 112.3,328 	"/>
	<polygon class="st2" points="233.1,250.7 206.3,235.2 199.7,238.9 199.8,269.9 	"/>
	<polygon class="st2" points="112.3,320.5 199.8,269.9 199.7,238.9 112.3,289.4 	"/>
	<polygon class="st0" points="233.2,296.8 266.4,277.7 266.4,270.1 233.2,289.3 	"/>
	<polygon class="st0" points="145.4,409.6 138.9,413.4 139,436.8 145.5,436.8 	"/>
	<polygon class="st0" points="233.2,296.8 233.2,289.3 199.9,308.5 200,316 	"/>
	<polygon class="st0" points="138.9,413.4 145.4,409.6 145.3,347.6 200,316 199.9,308.5 138.7,343.8 	"/>
	<polygon class="st1" points="112.3,428.8 112.3,436.8 139,436.8 138.9,413.4 	"/>
	<polygon class="st1" points="138.7,343.8 112.3,328.4 112.3,428.8 138.9,413.4 	"/>
	<polygon class="st2" points="266.4,270.1 239.6,254.5 233.1,258.3 233.2,289.3 	"/>
	<polygon class="st2" points="199.9,308.5 233.2,289.3 233.1,258.3 199.8,277.5 	"/>
	<polygon class="st2" points="112.3,328.4 138.7,343.8 199.9,308.5 199.8,277.5 112.3,328 	"/>
	<polygon class="st0" points="299.7,289.4 266.5,308.6 266.8,416.8 232.1,436.8 299,436.8 300.2,436.2 	"/>
	<polygon class="st0" points="233.5,397.4 172.3,432.8 172.3,436.8 232.1,436.8 266.8,416.8 266.5,308.6 233.3,327.8 	"/>
	<polygon class="st0" points="200.1,378.1 172.1,394.2 172.3,432.8 233.5,397.4 233.3,327.8 200,347 	"/>
	<polygon class="st0" points="200,347 172.1,363.2 172.1,394.2 200.1,378.1 	"/>
	<polygon class="st1" points="165.2,436.8 172.3,436.8 172.3,432.8 	"/>
	<polygon class="st1" points="172.1,394.2 145.4,409.6 145.5,436.8 165.2,436.8 172.3,432.8 	"/>
	<polygon class="st1" points="145.3,347.6 145.4,409.6 172.1,394.2 172.1,363.2 	"/>
	<polygon class="st2" points="299.7,289.4 273,273.9 266.4,277.7 266.5,308.6 	"/>
	<polygon class="st2" points="233.3,327.8 266.5,308.6 266.4,277.7 233.2,296.8 	"/>
	<polygon class="st2" points="200,347 233.3,327.8 233.2,296.8 200,316 	"/>
	<polygon class="st2" points="200,347 200,316 145.3,347.6 172.1,363.2 	"/>
</g>
</svg>
