<?xml version="1.0" encoding="utf-8"?>
<!-- Generator: Adobe Illustrator 25.2.1, SVG Export Plug-In . SVG Version: 6.00 Build 0)  -->
<svg version="1.1" id="Layer_1" xmlns="http://www.w3.org/2000/svg" xmlns:xlink="http://www.w3.org/1999/xlink" x="0px" y="0px"
	 viewBox="0 0 595.3 841.9" style="enable-background:new 0 0 595.3 841.9;" xml:space="preserve">
<style type="text/css">
	.st0{fill:#989798;}
	.st1{fill:#6A6A6A;}
	.st2{fill:#ACABAB;}
	.st3{fill:none;}
</style>
<polygon class="st0" points="554.3,420.9 553.8,274.3 553.8,421.1 "/>
<polygon class="st1" points="111.9,459.7 112.2,560.3 112.3,560.3 112.3,459.9 "/>
<polygon class="st2" points="111.9,459.7 112.3,459.9 112.3,459.5 "/>
<polygon class="st3" points="553.8,274.2 553.8,274.2 553.8,274.3 "/>
<polygon class="st3" points="453.8,510.2 453.8,517.8 460.4,514 487.2,529.5 487.2,537.1 493.7,533.3 520.5,548.9 520.5,556.5 
	527.1,552.7 553.8,568.3 553.8,568.3 553.8,421.1 426.6,494.6 399.8,479 399.8,471.5 393.2,475.2 366.4,459.7 366.4,452.1 
	359.9,455.9 333.1,440.3 333.1,432.7 326.5,436.5 299.8,421 299.3,274.2 299.5,274.2 299.1,274.2 172.5,347.3 145.7,331.7 
	145.7,324.1 139.1,327.9 112.3,312.3 112.3,304.8 112.3,304.8 112.3,382.3 172.9,347.3 199.7,362.8 199.7,370.4 206.3,366.6 
	233.1,382.2 233.1,389.8 239.6,386 266.4,401.6 266.4,409.1 273,405.4 299.7,420.9 300.2,567.7 299.1,568.3 299.5,568.3 427,494.6 
	"/>
<polygon class="st0" points="366.3,274.2 353.2,274.2 326.1,289.8 326.5,436.5 333.1,432.7 332.7,293.6 "/>
<polygon class="st1" points="299.3,274.2 299.8,421 326.5,436.5 326.1,289.8 "/>
<polygon class="st2" points="326.1,289.8 353.2,274.2 299.5,274.2 299.3,274.2 "/>
<polygon class="st0" points="359.8,417.3 359.9,455.9 366.4,452.1 366.3,413.6 "/>
<polygon class="st0" points="359.8,417.3 366.3,413.6 366,313 433.2,274.2 420.1,274.2 359.5,309.2 "/>
<polygon class="st1" points="333.1,432.7 333.1,440.3 359.9,455.9 359.8,417.3 "/>
<polygon class="st1" points="359.5,309.2 332.7,293.6 333.1,432.7 359.8,417.3 "/>
<polygon class="st2" points="359.5,309.2 420.1,274.2 366.3,274.2 332.7,293.6 "/>
<polygon class="st0" points="500.1,274.2 487.3,274.2 487.3,281.6 "/>
<polygon class="st0" points="393.1,436.7 393.2,475.2 399.8,471.5 399.7,432.9 "/>
<polygon class="st0" points="454.1,300.7 487.3,281.6 487.3,274.2 487,274.2 454,293.2 "/>
<polygon class="st0" points="393,398.1 393.1,436.7 399.7,432.9 399.5,394.4 "/>
<polygon class="st0" points="399.4,332.3 454.1,300.7 454,293.2 392.8,328.5 393,398.1 399.5,394.4 "/>
<polygon class="st1" points="366.4,452.1 366.4,459.7 393.2,475.2 393.1,436.7 "/>
<polygon class="st1" points="393,398.1 366.3,413.6 366.4,452.1 393.1,436.7 "/>
<polygon class="st1" points="366,313 366.3,413.6 393,398.1 392.8,328.5 "/>
<polygon class="st2" points="487,274.2 454,274.2 454,293.2 "/>
<polygon class="st2" points="366,313 392.8,328.5 454,293.2 454,274.2 433.2,274.2 "/>
<polygon class="st0" points="520.9,401.5 426.5,456.1 426.6,494.6 553.8,421.1 553.8,274.3 553.8,274.2 520.6,293.3 "/>
<polygon class="st0" points="487.6,382.2 426.4,417.5 426.5,456.1 520.9,401.5 520.6,293.3 487.4,312.5 "/>
<polygon class="st0" points="487.4,312.5 454.1,331.7 454.2,362.8 426.2,379 426.4,417.5 487.6,382.2 "/>
<polygon class="st0" points="426.2,379 454.2,362.8 454.1,331.7 426.2,347.9 "/>
<polygon class="st1" points="399.8,471.5 399.8,479 426.6,494.6 426.5,456.1 "/>
<polygon class="st1" points="426.4,417.5 399.7,432.9 399.8,471.5 426.5,456.1 "/>
<polygon class="st1" points="399.5,394.4 399.7,432.9 426.4,417.5 426.2,379 "/>
<polygon class="st1" points="399.4,332.3 399.5,394.4 426.2,379 426.2,347.9 "/>
<polygon class="st2" points="520.6,293.3 553.8,274.2 520.6,274.2 "/>
<polygon class="st2" points="487.4,312.5 520.6,293.3 520.6,274.2 500.1,274.2 487.3,281.6 "/>
<polygon class="st2" points="487.4,312.5 487.3,281.6 454.1,300.7 454.1,331.7 "/>
<polygon class="st2" points="426.2,347.9 454.1,331.7 454.1,300.7 399.4,332.3 "/>
<polygon class="st0" points="453.8,510.2 353.2,568.3 366.3,568.3 453.8,517.8 "/>
<polygon class="st2" points="453.8,510.2 427,494.6 299.5,568.3 353.2,568.3 "/>
<polygon class="st0" points="453.9,556.3 487.2,537.1 487.2,529.5 453.9,548.7 "/>
<polygon class="st0" points="453.9,548.7 420.1,568.3 433.2,568.3 453.9,556.3 "/>
<polygon class="st2" points="487.2,529.5 460.4,514 453.8,517.8 453.9,548.7 "/>
<polygon class="st2" points="453.9,548.7 453.8,517.8 366.3,568.3 420.1,568.3 "/>
<polygon class="st0" points="487.3,568.3 500.1,568.3 520.5,556.5 520.5,548.9 487.3,568.1 "/>
<polygon class="st0" points="487.3,568.1 487,568.3 487.3,568.3 "/>
<polygon class="st2" points="520.5,548.9 493.7,533.3 487.2,537.1 487.3,568.1 "/>
<polygon class="st2" points="454,568.3 487,568.3 487.3,568.1 487.2,537.1 453.9,556.3 "/>
<polygon class="st2" points="453.9,556.3 433.2,568.3 454,568.3 "/>
<polygon class="st2" points="520.5,556.5 520.6,568.3 553.8,568.3 527.1,552.7 "/>
<polygon class="st2" points="520.6,568.3 520.5,556.5 500.1,568.3 "/>
<polygon class="st0" points="112.3,280 112.3,304.8 112.3,304.8 "/>
<polygon class="st0" points="139,289.4 139.1,327.9 145.7,324.1 145.6,285.6 "/>
<polygon class="st0" points="139,274.2 139,289.4 145.6,285.6 145.5,274.2 "/>
<polygon class="st1" points="112.3,304.8 112.3,312.3 139.1,327.9 139,289.4 "/>
<polygon class="st1" points="139,274.2 112.3,274.2 112.3,280 112.3,304.8 139,289.4 "/>
<polygon class="st0" points="172.4,308.7 172.5,347.3 299.1,274.2 232.2,274.2 "/>
<polygon class="st0" points="172.4,308.7 232.2,274.2 172.3,274.2 "/>
<polygon class="st1" points="145.7,324.1 145.7,331.7 172.5,347.3 172.4,308.7 "/>
<polygon class="st1" points="172.3,274.2 165.3,274.2 145.6,285.6 145.7,324.1 172.4,308.7 "/>
<polygon class="st1" points="145.6,285.6 165.3,274.2 145.5,274.2 "/>
<polygon class="st0" points="112.3,420.9 199.7,370.4 199.7,362.8 112.3,413.3 "/>
<polygon class="st2" points="199.7,362.8 172.9,347.3 112.3,382.3 112.3,413.3 "/>
<polygon class="st0" points="199.8,409 233.1,389.8 233.1,382.2 199.8,401.4 "/>
<polygon class="st0" points="199.8,409 199.8,401.4 112.3,452 112.3,459.5 "/>
<polygon class="st2" points="233.1,382.2 206.3,366.6 199.7,370.4 199.8,401.4 "/>
<polygon class="st2" points="112.3,452 199.8,401.4 199.7,370.4 112.3,420.9 "/>
<polygon class="st0" points="233.2,428.3 266.4,409.1 266.4,401.6 233.2,420.8 "/>
<polygon class="st0" points="233.2,428.3 233.2,420.8 199.9,439.9 200,447.5 "/>
<polygon class="st0" points="145.4,541.1 138.9,544.9 139,568.3 145.5,568.3 "/>
<polygon class="st0" points="138.9,544.9 145.4,541.1 145.3,479.1 200,447.5 199.9,439.9 138.7,475.3 "/>
<polygon class="st1" points="112.3,560.3 112.3,568.3 139,568.3 138.9,544.9 "/>
<polygon class="st1" points="138.7,475.3 112.3,459.9 112.3,560.3 138.9,544.9 "/>
<polygon class="st2" points="266.4,401.6 239.6,386 233.1,389.8 233.2,420.8 "/>
<polygon class="st2" points="199.9,439.9 233.2,420.8 233.1,389.8 199.8,409 "/>
<polygon class="st2" points="112.3,459.9 138.7,475.3 199.9,439.9 199.8,409 112.3,459.5 "/>
<polygon class="st0" points="299.7,420.9 266.5,440.1 266.8,548.3 232.2,568.3 299.1,568.3 300.2,567.7 "/>
<polygon class="st0" points="233.5,528.9 172.3,564.3 172.3,568.3 232.2,568.3 266.8,548.3 266.5,440.1 233.3,459.3 "/>
<polygon class="st0" points="200.1,509.6 172.1,525.7 172.3,564.3 233.5,528.9 233.3,459.3 200,478.5 "/>
<polygon class="st0" points="200,478.5 172.1,494.7 172.1,525.7 200.1,509.6 "/>
<polygon class="st1" points="165.3,568.3 172.3,568.3 172.3,564.3 "/>
<polygon class="st1" points="172.1,525.7 145.4,541.1 145.5,568.3 165.3,568.3 172.3,564.3 "/>
<polygon class="st1" points="145.3,479.1 145.4,541.1 172.1,525.7 172.1,494.7 "/>
<polygon class="st2" points="299.7,420.9 273,405.4 266.4,409.1 266.5,440.1 "/>
<polygon class="st2" points="233.3,459.3 266.5,440.1 266.4,409.1 233.2,428.3 "/>
<polygon class="st2" points="200,478.5 233.3,459.3 233.2,428.3 200,447.5 "/>
<polygon class="st2" points="200,478.5 200,447.5 145.3,479.1 172.1,494.7 "/>
</svg>
