<?xml version="1.0" encoding="utf-8"?>
<!-- Generator: Adobe Illustrator 25.2.1, SVG Export Plug-In . SVG Version: 6.00 Build 0)  -->
<svg version="1.1" id="Layer_1" xmlns="http://www.w3.org/2000/svg" xmlns:xlink="http://www.w3.org/1999/xlink" x="0px" y="0px"
	 viewBox="0 0 441.6 294.1" style="enable-background:new 0 0 441.6 294.1;" xml:space="preserve">
<style type="text/css">
	.st0{fill:#989798;}
	.st1{fill:#6A6A6A;}
	.st2{fill:#ACABAB;}
	.st3{fill:none;}
</style>
<polygon class="st0" points="442,146.7 441.6,0.1 441.6,147 "/>
<polygon class="st1" points="-0.3,185.6 0,286.2 0,286.1 0,185.8 "/>
<polygon class="st2" points="-0.3,185.6 0,185.8 0,185.4 "/>
<polygon class="st3" points="441.6,0 441.6,0 441.6,0.1 "/>
<polygon class="st3" points="341.6,236 341.6,243.6 348.1,239.8 374.9,255.4 374.9,263 381.5,259.2 408.3,274.7 408.3,282.3 
	414.8,278.5 441.6,294.1 441.6,294.1 441.6,147 314.3,220.5 287.5,204.9 287.5,197.3 281,201.1 254.2,185.5 254.2,177.9 
	247.6,181.7 220.8,166.2 220.8,158.6 214.3,162.4 187.5,146.8 187.1,0.1 187.2,0 186.9,0 60.2,73.1 33.4,57.6 33.4,50 26.9,53.8 
	0.1,38.2 0.1,30.6 0,30.7 0,108.2 60.7,73.1 87.5,88.7 87.5,96.3 94,92.5 120.8,108.1 120.8,115.6 127.4,111.8 154.2,127.4 
	154.2,135 160.7,131.2 187.5,146.8 187.9,293.5 186.9,294.1 187.2,294.1 314.8,220.5 "/>
<polygon class="st0" points="254.1,0 240.9,0 213.9,15.6 214.3,162.4 220.8,158.6 220.4,19.4 "/>
<polygon class="st1" points="187.1,0.1 187.5,146.8 214.3,162.4 213.9,15.6 "/>
<polygon class="st2" points="213.9,15.6 240.9,0 187.2,0 187.1,0.1 "/>
<polygon class="st0" points="247.5,143.2 247.6,181.7 254.2,177.9 254.1,139.4 "/>
<polygon class="st0" points="247.5,143.2 254.1,139.4 253.8,38.8 321,0 307.8,0 247.2,35 "/>
<polygon class="st1" points="220.8,158.6 220.8,166.2 247.6,181.7 247.5,143.2 "/>
<polygon class="st1" points="247.2,35 220.4,19.4 220.8,158.6 247.5,143.2 "/>
<polygon class="st2" points="247.2,35 307.8,0 254.1,0 220.4,19.4 "/>
<polygon class="st0" points="387.9,0 375,0 375,7.4 "/>
<polygon class="st0" points="280.9,162.5 281,201.1 287.5,197.3 287.4,158.8 "/>
<polygon class="st0" points="341.8,26.6 375,7.4 375,0 374.7,0 341.8,19 "/>
<polygon class="st0" points="280.8,124 280.9,162.5 287.4,158.8 287.3,120.2 "/>
<polygon class="st0" points="287.1,58.2 341.8,26.6 341.8,19 280.6,54.4 280.8,124 287.3,120.2 "/>
<polygon class="st1" points="254.2,177.9 254.2,185.5 281,201.1 280.9,162.5 "/>
<polygon class="st1" points="280.8,124 254.1,139.4 254.2,177.9 280.9,162.5 "/>
<polygon class="st1" points="253.8,38.8 254.1,139.4 280.8,124 280.6,54.4 "/>
<polygon class="st2" points="374.7,0 341.7,0 341.8,19 "/>
<polygon class="st2" points="253.8,38.8 280.6,54.4 341.8,19 341.7,0 321,0 "/>
<polygon class="st0" points="441.6,0 408.4,19.2 375.1,38.4 341.9,57.6 313.9,73.7 314,104.8 314.1,143.3 314.2,181.9 314.3,220.5 
	441.6,147 441.6,0.1 "/>
<polygon class="st1" points="287.5,197.3 287.5,204.9 314.3,220.5 314.2,181.9 "/>
<polygon class="st1" points="314.1,143.3 287.4,158.8 287.5,197.3 314.2,181.9 "/>
<polygon class="st1" points="287.3,120.2 287.4,158.8 314.1,143.3 314,104.8 "/>
<polygon class="st1" points="287.1,58.2 287.3,120.2 314,104.8 313.9,73.7 "/>
<polygon class="st2" points="408.4,19.2 441.6,0 408.3,0 "/>
<polygon class="st2" points="375.1,38.4 408.4,19.2 408.3,0 387.9,0 375,7.4 "/>
<polygon class="st2" points="375.1,38.4 375,7.4 341.8,26.6 341.9,57.6 "/>
<polygon class="st2" points="313.9,73.7 341.9,57.6 341.8,26.6 287.1,58.2 "/>
<polygon class="st0" points="341.6,236 240.9,294.1 254.1,294.1 341.6,243.6 "/>
<polygon class="st2" points="341.6,236 314.8,220.5 187.2,294.1 240.9,294.1 "/>
<polygon class="st0" points="341.7,282.1 374.9,263 374.9,255.4 341.7,274.6 "/>
<polygon class="st0" points="341.7,274.6 307.8,294.1 321,294.1 341.7,282.1 "/>
<polygon class="st2" points="374.9,255.4 348.1,239.8 341.6,243.6 341.7,274.6 "/>
<polygon class="st2" points="341.7,274.6 341.6,243.6 254.1,294.1 307.8,294.1 "/>
<polygon class="st0" points="375,294.1 387.9,294.1 408.3,282.3 408.3,274.7 375,293.9 "/>
<polygon class="st0" points="375,293.9 374.7,294.1 375,294.1 "/>
<polygon class="st2" points="408.3,274.7 381.5,259.2 374.9,263 375,293.9 "/>
<polygon class="st2" points="341.7,294.1 374.7,294.1 375,293.9 374.9,263 341.7,282.1 "/>
<polygon class="st2" points="341.7,282.1 321,294.1 341.7,294.1 "/>
<polygon class="st2" points="408.3,282.3 408.3,294.1 441.6,294.1 414.8,278.5 "/>
<polygon class="st2" points="408.3,294.1 408.3,282.3 387.9,294.1 "/>
<polygon class="st0" points="0,5.8 0,30.7 0.1,30.6 "/>
<polygon class="st0" points="26.8,15.2 26.9,53.8 33.4,50 33.3,11.4 "/>
<polygon class="st0" points="26.7,0 26.8,15.2 33.3,11.4 33.3,0 "/>
<polygon class="st1" points="0.1,30.6 0.1,38.2 26.9,53.8 26.8,15.2 "/>
<polygon class="st1" points="26.7,0 0,0 0,5.8 0.1,30.6 26.8,15.2 "/>
<polygon class="st0" points="120,0 60,0 60.1,34.6 60.2,73.1 186.9,0 "/>
<polygon class="st1" points="33.4,50 33.4,57.6 60.2,73.1 60.1,34.6 "/>
<polygon class="st1" points="60,0 53.1,0 33.3,11.4 33.4,50 60.1,34.6 "/>
<polygon class="st1" points="33.3,11.4 53.1,0 33.3,0 "/>
<polygon class="st0" points="0,146.8 87.5,96.3 87.5,88.7 0,139.2 "/>
<polygon class="st2" points="87.5,88.7 60.7,73.1 0,108.2 0,139.2 "/>
<polygon class="st0" points="87.6,134.8 120.8,115.6 120.8,108.1 87.6,127.2 "/>
<polygon class="st0" points="87.6,134.8 87.6,127.2 0,177.8 0,185.4 "/>
<polygon class="st2" points="120.8,108.1 94,92.5 87.5,96.3 87.6,127.2 "/>
<polygon class="st2" points="0,177.8 87.6,127.2 87.5,96.3 0,146.8 "/>
<polygon class="st0" points="120.9,154.2 154.2,135 154.2,127.4 120.9,146.6 "/>
<polygon class="st0" points="120.9,154.2 120.9,146.6 87.7,165.8 87.7,173.4 "/>
<polygon class="st0" points="33.2,267 26.7,270.8 26.7,294.1 33.3,294.1 "/>
<polygon class="st0" points="26.7,270.8 33.2,267 33,204.9 87.7,173.4 87.7,165.8 26.5,201.1 "/>
<polygon class="st1" points="0,286.1 0,294.1 26.7,294.1 26.7,270.8 "/>
<polygon class="st1" points="26.5,201.1 0,185.8 0,286.1 26.7,270.8 "/>
<polygon class="st2" points="154.2,127.4 127.4,111.8 120.8,115.6 120.9,146.6 "/>
<polygon class="st2" points="87.7,165.8 120.9,146.6 120.8,115.6 87.6,134.8 "/>
<polygon class="st2" points="0,185.8 26.5,201.1 87.7,165.8 87.6,134.8 0,185.4 "/>
<polygon class="st0" points="187.5,146.8 154.3,166 121,185.2 87.8,204.3 59.8,220.5 59.9,251.6 60,290.1 60,294.1 120,294.1 
	186.9,294.1 187.9,293.5 "/>
<polygon class="st1" points="53.1,294.1 60,294.1 60,290.1 "/>
<polygon class="st1" points="59.9,251.6 33.2,267 33.3,294.1 53.1,294.1 60,290.1 "/>
<polygon class="st1" points="33,204.9 33.2,267 59.9,251.6 59.8,220.5 "/>
<polygon class="st2" points="187.5,146.8 160.7,131.2 154.2,135 154.3,166 "/>
<polygon class="st2" points="121,185.2 154.3,166 154.2,135 120.9,154.2 "/>
<polygon class="st2" points="87.8,204.3 121,185.2 120.9,154.2 87.7,173.4 "/>
<polygon class="st2" points="87.8,204.3 87.7,173.4 33,204.9 59.8,220.5 "/>
</svg>
